# xmcd
#
# Track frame offsets: 
#        150
#        26662
#        45910
#        57085
#        70525
#        90437
#        112507
#        131257
#        146735
#        167425
#        180111
#        200736
#        228553
#        243688
#        258800
#
# Disc length: 3706 seconds
#
# Revision: 0
# Processed by: cddbd v1.5.2PL0 Copyright (c) Steve Scherf et al.
# Submitted via: ExactAudioCopy v0.99pb3
#
DISCID=b40e780f
DTITLE=Various Artist - Night Love Story La France
DYEAR=2006
DGENRE=Rhythmic Soul
TTITLE0=Les Plaisirs Demodes
TTITLE1=Alexandrie, Alexandra
TTITLE2=A Bicyclette
TTITLE3=Ex Fan Des Sixties
TTITLE4=Je Suis Malade
TTITLE5=Toute La Musique Que J'aime
TTITLE6=A Nos Actes Manques
TTITLE7=La Musique
TTITLE8=Le Sud
TTITLE9=Je N'ai Que Mon Ame
TTITLE10=Savoir Aimer
TTITLE11=Morgane De Toi
TTITLE12=Si Je M'en Sors
TTITLE13=A 20 Ans
TTITLE14=Personne
EXTD=
EXTT0=
EXTT1=
EXTT2=
EXTT3=
EXTT4=
EXTT5=
EXTT6=
EXTT7=
EXTT8=
EXTT9=
EXTT10=
EXTT11=
EXTT12=
EXTT13=
EXTT14=
PLAYORDER=
